<svg width="135" height="40" viewBox="0 0 135 40" fill="none" xmlns="http://www.w3.org/2000/svg">
<g clip-path="url(#clip0_2062_909)">
<path d="M22.0088 16.2634V8.7203C22.048 8.02875 22.3497 7.37844 22.8522 6.90274C23.3546 6.42704 24.0196 6.16201 24.7109 6.16201C25.4021 6.16201 26.0672 6.42704 26.5696 6.90274C27.072 7.37844 27.3738 8.02875 27.413 8.7203V15.4349C27.413 17.8592 28.7183 18.3126 29.5886 18.3126C31.068 18.3126 32.06 17.1615 32.06 14.8245V8.7203C32.1505 8.07244 32.4716 7.47917 32.9642 7.04985C33.4567 6.62052 34.0875 6.38407 34.7404 6.38407C35.3932 6.38407 36.024 6.62052 36.5166 7.04985C37.0091 7.47917 37.3302 8.07244 37.4207 8.7203V19.7602C37.3829 20.4041 37.101 21.0092 36.6327 21.4517C36.1644 21.8942 35.545 22.1406 34.9014 22.1406C34.2577 22.1406 33.6383 21.8942 33.17 21.4517C32.7017 21.0092 32.4198 20.4041 32.382 19.7602V19.1847C32.0037 20.1528 31.3374 20.9809 30.4733 21.5565C29.6093 22.1321 28.5895 22.4275 27.5522 22.4024C23.3664 22.3676 22.0088 19.673 22.0088 16.2634Z" fill="#2C4857"/>
<path d="M40.1787 19.5596V8.54589C40.1787 7.87172 40.446 7.22516 40.9217 6.74845C41.3974 6.27173 42.0427 6.00392 42.7155 6.00392C43.3882 6.00392 44.0335 6.27173 44.5092 6.74845C44.9849 7.22516 45.2522 7.87172 45.2522 8.54589V9.23479H45.3653C46.1224 7.09832 46.8969 6.05188 48.446 6.05188C48.7697 6.02259 49.0959 6.06166 49.4036 6.16659C49.7113 6.27152 49.9935 6.43996 50.2322 6.66103C50.4709 6.88211 50.6606 7.15089 50.7891 7.45003C50.9176 7.74916 50.9821 8.07198 50.9784 8.39764C50.9784 9.4964 50.1081 10.3684 48.707 10.6736C46.7055 11.1358 45.6264 12.6357 45.6264 14.8332V19.5596C45.6264 20.2789 45.3413 20.9687 44.8337 21.4773C44.3261 21.9859 43.6378 22.2716 42.92 22.2716C42.2022 22.2716 41.5138 21.9859 41.0062 21.4773C40.4987 20.9687 40.2135 20.2789 40.2135 19.5596H40.1787Z" fill="#2C4857"/>
<path d="M52.5889 19.5596V8.54589C52.6266 7.902 52.9085 7.2969 53.3769 6.8544C53.8452 6.4119 54.4645 6.16544 55.1082 6.16544C55.7519 6.16544 56.3712 6.4119 56.8396 6.8544C57.3079 7.2969 57.5898 7.902 57.6275 8.54589V9.23479H57.7407C58.4978 7.09832 59.2723 6.05189 60.8213 6.05189C61.145 6.02259 61.4712 6.06167 61.7789 6.16659C62.0866 6.27152 62.3689 6.43996 62.6076 6.66104C62.8462 6.88211 63.0359 7.15089 63.1645 7.45003C63.293 7.74916 63.3575 8.07199 63.3537 8.39765C63.3537 9.4964 62.4835 10.3684 61.0824 10.6736C59.0721 11.1358 57.993 12.6357 57.993 14.8332V19.5596C57.9539 20.2512 57.6521 20.9015 57.1497 21.3772C56.6472 21.8529 55.9822 22.1179 55.291 22.1179C54.5997 22.1179 53.9347 21.8529 53.4322 21.3772C52.9298 20.9015 52.628 20.2512 52.5889 19.5596V19.5596Z" fill="#2C4857"/>
<path d="M67.7393 26.2219C67.7434 25.9238 67.7994 25.6287 67.9047 25.3499L69.0708 22.2193L64.2671 9.59233C64.1706 9.31109 64.1149 9.01741 64.1017 8.7203C64.0947 8.09798 64.3093 7.49354 64.707 7.01551C65.1047 6.53749 65.6595 6.2172 66.2716 6.11216C66.8838 6.00712 67.5133 6.12421 68.0471 6.44241C68.5808 6.76061 68.9839 7.25906 69.1839 7.84827L71.1332 13.5688C71.4856 14.5739 71.7079 15.6201 71.7946 16.6819H71.9774C72.0981 15.619 72.3435 14.5741 72.7084 13.5688L74.562 7.76978C74.7282 7.28133 75.0421 6.85685 75.46 6.55525C75.8779 6.25366 76.3792 6.08993 76.8942 6.08677C77.2115 6.08677 77.5257 6.14953 77.8187 6.27147C78.1117 6.3934 78.3779 6.57211 78.6018 6.79734C78.8258 7.02256 79.0032 7.28988 79.1238 7.58395C79.2444 7.87802 79.3059 8.19307 79.3048 8.51101C79.3059 8.80733 79.2589 9.10186 79.1655 9.38304L72.4821 27.0329C72.2856 27.5732 71.9056 28.027 71.4089 28.3149C70.9121 28.6027 70.3301 28.7064 69.7647 28.6076C69.1994 28.5089 68.6867 28.214 68.3164 27.7747C67.9462 27.3354 67.7419 26.7795 67.7393 26.2045V26.2219Z" fill="#2C4857"/>
<path d="M75.4674 26.0301C75.4695 25.734 75.5165 25.44 75.6066 25.1581L83.3082 3.0521C83.6653 2.15697 84.2818 1.38961 85.0784 0.849064C85.8749 0.30852 86.8149 0.0196037 87.7769 0.0196037C88.7389 0.0196037 89.6788 0.30852 90.4754 0.849064C91.2719 1.38961 91.8885 2.15697 92.2455 3.0521L97.7193 18.7486C97.8045 19.0318 97.8513 19.3251 97.8586 19.6207C97.8744 20.2693 97.6538 20.9015 97.2381 21.3989C96.8224 21.8964 96.2401 22.225 95.6 22.3233C94.96 22.4217 94.3062 22.283 93.7608 21.9332C93.2155 21.5834 92.816 21.0465 92.6371 20.4229L91.7408 17.4406H83.8303L80.6366 26.8324C80.5304 27.5192 80.1563 28.1357 79.5965 28.5462C79.0367 28.9567 78.3371 29.1275 77.6517 29.0211C76.9662 28.9148 76.3509 28.5399 75.9413 27.9789C75.5317 27.418 75.3612 26.717 75.4674 26.0301V26.0301ZM85.1966 13.124H90.3658L88.9734 8.7203C88.7472 8.03139 88.1641 5.8862 87.9466 5.05777H87.6072C87.407 5.9298 86.824 8.03139 86.589 8.7203L85.1966 13.124Z" fill="#EF641A"/>
<path d="M99.5986 25.969V8.52845C99.6362 7.89136 99.9153 7.29272 100.379 6.85496C100.842 6.4172 101.455 6.17339 102.092 6.17339C102.729 6.17339 103.342 6.4172 103.805 6.85496C104.268 7.29272 104.548 7.89136 104.585 8.52845V8.7203C105.129 7.84699 105.893 7.13354 106.801 6.65257C107.709 6.1716 108.728 5.94027 109.754 5.98212C114.105 5.98212 116.159 9.58361 116.159 13.8827C116.159 19.1847 113.105 22.4024 108.919 22.4024C107.474 22.4323 106.074 21.9011 105.012 20.92V26.0039C105.012 26.7232 104.726 27.413 104.219 27.9216C103.711 28.4302 103.023 28.7159 102.305 28.7159C101.587 28.7159 100.899 28.4302 100.391 27.9216C99.8838 27.413 99.5986 26.7232 99.5986 26.0039V25.969ZM110.72 14.1356C110.72 10.8742 109.371 9.73185 107.892 9.73185C106.152 9.73185 104.872 11.0573 104.872 14.1356C104.872 17.5801 106.204 18.7574 107.779 18.7574C109.354 18.7574 110.72 17.4406 110.72 14.1356Z" fill="#EF641A"/>
<path d="M118.439 25.969V8.52845C118.477 7.89136 118.756 7.29272 119.22 6.85496C119.683 6.4172 120.296 6.17339 120.933 6.17339C121.57 6.17339 122.182 6.4172 122.646 6.85496C123.109 7.29272 123.388 7.89136 123.426 8.52845V8.7203C123.969 7.84699 124.734 7.13354 125.642 6.65257C126.55 6.1716 127.569 5.94027 128.595 5.98212C132.946 5.98212 135 9.58361 135 13.8827C135 19.1847 131.946 22.4024 127.76 22.4024C126.315 22.4323 124.915 21.9011 123.852 20.92V26.0039C123.852 26.7232 123.567 27.413 123.06 27.9216C122.552 28.4302 121.864 28.7159 121.146 28.7159C120.428 28.7159 119.74 28.4302 119.232 27.9216C118.725 27.413 118.439 26.7232 118.439 26.0039V25.969ZM129.561 14.1356C129.561 10.8742 128.212 9.73185 126.733 9.73185C124.992 9.73185 123.713 11.0573 123.713 14.1356C123.713 17.5801 125.045 18.7574 126.62 18.7574C128.195 18.7574 129.561 17.4406 129.561 14.1356Z" fill="#EF641A"/>
<path d="M5.57823 16.7866C5.5787 16.1154 5.74799 15.4551 6.07045 14.8668C6.3929 14.2785 6.85812 13.7811 7.42313 13.4205C10.0338 10.7608 8.29337 9.22607 7.62329 8.79878L7.47535 8.7203H7.42313C6.86563 8.35883 6.40615 7.86463 6.08574 7.28183C5.76533 6.69903 5.59395 6.04578 5.58693 5.38042V5.38042V2.76433C5.58578 2.02194 5.29036 1.3104 4.76567 0.786266C4.24097 0.262129 3.52999 -0.0316782 2.78912 -0.0305218C2.04824 -0.0293654 1.33817 0.26666 0.815113 0.792432C0.292053 1.3182 -0.0011506 2.03066 3.39354e-06 2.77305V19.4811C0.0068956 20.2159 0.303606 20.9181 0.825354 21.4343C1.3471 21.9506 2.0515 22.2391 2.78476 22.2368C3.14891 22.2402 3.51015 22.1716 3.84779 22.0349C4.18542 21.8982 4.49281 21.696 4.75232 21.44C5.01184 21.184 5.21838 20.8792 5.3601 20.5431C5.50183 20.2069 5.57595 19.846 5.57823 19.4811V17.8156V16.7866Z" fill="#2C4857"/>
<path d="M16.4045 -2.37446e-06C16.0388 -0.00229988 15.6763 0.0676056 15.3375 0.205723C14.9988 0.343839 14.6905 0.547463 14.4303 0.804966C14.1701 1.06247 13.9631 1.36881 13.821 1.70649C13.6789 2.04418 13.6047 2.4066 13.6024 2.77305V5.38914C13.5842 6.11457 13.3709 6.82161 12.9849 7.43558C12.5988 8.04954 12.0545 8.54765 11.4094 8.87726C10.6958 9.40048 9.25989 10.9091 11.7401 13.4031C12.3091 13.7649 12.778 14.2646 13.1035 14.8559C13.429 15.4473 13.6006 16.1112 13.6024 16.7866V17.7981V19.4637C13.6024 20.2061 13.8967 20.9181 14.4206 21.443C14.9444 21.968 15.655 22.2629 16.3958 22.2629C17.1367 22.2629 17.8472 21.968 18.3711 21.443C18.895 20.9181 19.1893 20.2061 19.1893 19.4637V2.77305C19.1882 2.40774 19.1152 2.04624 18.9747 1.70917C18.8341 1.37211 18.6287 1.06609 18.3701 0.80859C18.1115 0.551088 17.8048 0.347145 17.4676 0.208407C17.1303 0.0696682 16.7691 -0.00114934 16.4045 -2.37446e-06V-2.37446e-06Z" fill="#2C4857"/>
<path d="M9.45054 19.1847C8.80424 19.5527 8.0548 19.6968 7.31845 19.5945C6.3699 19.455 6.53524 19.9172 6.71799 20.4665C7.09219 21.5479 8.03205 22.0275 9.6681 22.0275C11.9916 22.0275 12.888 21.0421 12.7226 18.6353C12.7226 18.1731 12.8445 17.5452 12.3397 17.3185C11.835 17.0918 11.4695 17.6586 11.1562 17.9464C10.747 18.3086 10.317 18.6463 9.86825 18.9579" fill="#EF641A"/>
<path d="M9.84272 7.70874C11.3917 7.55178 13.0539 5.42402 12.7232 3.92413C12.5492 3.16547 12.0009 3.15675 11.5658 3.58404C10.2691 4.82232 9.07691 4.70024 7.77156 3.58404C7.27552 3.14803 6.69246 3.23523 6.56193 4.04622C6.32696 5.56355 7.9456 7.53434 9.45982 7.71746" fill="#EF641A"/>
<path d="M60.4326 35.4954C60.4326 34.7394 60.6117 34.1323 60.97 33.6738C61.3282 33.2124 61.7973 32.9817 62.3771 32.9817C62.9539 32.9817 63.4108 33.179 63.7478 33.5737V31.0053H64.5903V38H63.8161L63.7751 37.4718C63.4382 37.8846 62.9691 38.0911 62.368 38.0911C61.7973 38.0911 61.3312 37.8573 60.97 37.3898C60.6117 36.9223 60.4326 36.312 60.4326 35.5591V35.4954ZM61.2751 35.591C61.2751 36.1496 61.3904 36.5868 61.6212 36.9025C61.8519 37.2183 62.1707 37.3761 62.5775 37.3761C63.1118 37.3761 63.5019 37.1363 63.7478 36.6566V34.3934C63.4958 33.9289 63.1088 33.6966 62.5866 33.6966C62.1737 33.6966 61.8519 33.856 61.6212 34.1748C61.3904 34.4935 61.2751 34.9656 61.2751 35.591Z" fill="#2C4857"/>
<path d="M65.6787 35.4908C65.6787 35.0081 65.7728 34.574 65.961 34.1884C66.1523 33.8029 66.4164 33.5054 66.7534 33.2959C67.0934 33.0864 67.4805 32.9817 67.9146 32.9817C68.5855 32.9817 69.1274 33.2139 69.5403 33.6784C69.9562 34.1429 70.1642 34.7607 70.1642 35.5318V35.591C70.1642 36.0707 70.0716 36.5018 69.8864 36.8843C69.7043 37.2638 69.4417 37.5598 69.0986 37.7723C68.7586 37.9848 68.3669 38.0911 67.9237 38.0911C67.2558 38.0911 66.7139 37.8588 66.298 37.3943C65.8851 36.9298 65.6787 36.3151 65.6787 35.55V35.4908ZM66.5257 35.591C66.5257 36.1375 66.6517 36.5762 66.9036 36.9071C67.1587 37.238 67.4987 37.4034 67.9237 37.4034C68.3518 37.4034 68.6918 37.2365 68.9438 36.9025C69.1957 36.5655 69.3217 36.095 69.3217 35.4908C69.3217 34.9504 69.1927 34.5133 68.9347 34.1793C68.6796 33.8423 68.3396 33.6738 67.9146 33.6738C67.4987 33.6738 67.1632 33.8393 66.9082 34.1702C66.6532 34.5011 66.5257 34.9747 66.5257 35.591Z" fill="#2C4857"/>
<path d="M74.6771 31.8796V33.0727H75.5969V33.7239H74.6771V36.7796C74.6771 36.9769 74.718 37.1257 74.8 37.2258C74.882 37.323 75.0216 37.3716 75.219 37.3716C75.3161 37.3716 75.4497 37.3534 75.6197 37.3169V38C75.3981 38.0607 75.1825 38.0911 74.9731 38.0911C74.5966 38.0911 74.3128 37.9772 74.1215 37.7495C73.9302 37.5218 73.8346 37.1985 73.8346 36.7796V33.7239H72.9375V33.0727H73.8346V31.8796H74.6771Z" fill="#2C4857"/>
<path d="M77.4276 33.6693C77.801 33.2109 78.2867 32.9817 78.8848 32.9817C79.9261 32.9817 80.4513 33.5691 80.4604 34.744V38H79.618V34.7394C79.615 34.3842 79.533 34.1216 79.3721 33.9516C79.2142 33.7816 78.9668 33.6966 78.6298 33.6966C78.3566 33.6966 78.1167 33.7695 77.9103 33.9152C77.7039 34.0609 77.5429 34.2522 77.4276 34.489V38H76.5851V31.0053H77.4276V33.6693Z" fill="#2C4857"/>
<path d="M83.7665 38.0911C83.0986 38.0911 82.5552 37.8725 82.1363 37.4353C81.7173 36.9951 81.5078 36.4077 81.5078 35.673V35.5182C81.5078 35.0294 81.6004 34.5937 81.7856 34.2112C81.9738 33.8256 82.2349 33.5251 82.5689 33.3095C82.9059 33.091 83.2702 32.9817 83.6618 32.9817C84.3024 32.9817 84.8003 33.1927 85.1555 33.6146C85.5107 34.0366 85.6883 34.6408 85.6883 35.4271V35.7777H82.3503C82.3624 36.2635 82.5036 36.6566 82.7738 36.9572C83.047 37.2547 83.3931 37.4034 83.8121 37.4034C84.1096 37.4034 84.3616 37.3427 84.568 37.2213C84.7745 37.0999 84.9551 36.939 85.1099 36.7386L85.6245 37.1393C85.2116 37.7738 84.5923 38.0911 83.7665 38.0911ZM83.6618 33.6738C83.3218 33.6738 83.0364 33.7983 82.8057 34.0473C82.575 34.2932 82.4323 34.6393 82.3776 35.0855H84.8458V35.0218C84.8215 34.5937 84.7062 34.2628 84.4997 34.029C84.2933 33.7922 84.014 33.6738 83.6618 33.6738Z" fill="#2C4857"/>
<path d="M91.3624 33.8287C91.2349 33.8074 91.0967 33.7968 90.948 33.7968C90.3954 33.7968 90.0205 34.0321 89.8232 34.5026V38H88.9807V33.0727H89.8004L89.8141 33.642C90.0903 33.2018 90.482 32.9817 90.9889 32.9817C91.1529 32.9817 91.2774 33.0029 91.3624 33.0454V33.8287Z" fill="#2C4857"/>
<path d="M93.0564 38H92.2139V33.0727H93.0564V38ZM92.1456 31.7658C92.1456 31.6292 92.1866 31.5138 92.2686 31.4197C92.3536 31.3256 92.4781 31.2785 92.642 31.2785C92.8059 31.2785 92.9304 31.3256 93.0154 31.4197C93.1004 31.5138 93.1429 31.6292 93.1429 31.7658C93.1429 31.9024 93.1004 32.0162 93.0154 32.1073C92.9304 32.1984 92.8059 32.2439 92.642 32.2439C92.4781 32.2439 92.3536 32.1984 92.2686 32.1073C92.1866 32.0162 92.1456 31.9024 92.1456 31.7658Z" fill="#2C4857"/>
<path d="M94.2085 35.4954C94.2085 34.7273 94.3861 34.1171 94.7413 33.6647C95.0965 33.2094 95.5671 32.9817 96.153 32.9817C96.7541 32.9817 97.2232 33.1942 97.5602 33.6192L97.6011 33.0727H98.3707V37.8816C98.3707 38.5191 98.181 39.0216 97.8015 39.3889C97.4251 39.7563 96.9181 39.9399 96.2805 39.9399C95.9253 39.9399 95.5777 39.864 95.2377 39.7122C94.8977 39.5605 94.6381 39.3525 94.459 39.0884L94.8962 38.5829C95.2574 39.0292 95.6992 39.2523 96.2213 39.2523C96.6312 39.2523 96.9499 39.1369 97.1776 38.9062C97.4084 38.6755 97.5237 38.3506 97.5237 37.9317V37.5082C97.1867 37.8968 96.7268 38.0911 96.1439 38.0911C95.5671 38.0911 95.0996 37.8588 94.7413 37.3943C94.3861 36.9298 94.2085 36.2969 94.2085 35.4954ZM95.0555 35.591C95.0555 36.1466 95.1694 36.5838 95.3971 36.9025C95.6248 37.2183 95.9435 37.3761 96.3534 37.3761C96.8847 37.3761 97.2748 37.1348 97.5237 36.6521V34.4025C97.2657 33.9319 96.8786 33.6966 96.3625 33.6966C95.9526 33.6966 95.6324 33.856 95.4016 34.1748C95.1709 34.4935 95.0555 34.9656 95.0555 35.591Z" fill="#2C4857"/>
<path d="M100.488 33.6693C100.862 33.2109 101.347 32.9817 101.946 32.9817C102.987 32.9817 103.512 33.5691 103.521 34.744V38H102.679V34.7394C102.676 34.3842 102.594 34.1216 102.433 33.9516C102.275 33.7816 102.027 33.6966 101.69 33.6966C101.417 33.6966 101.177 33.7695 100.971 33.9152C100.765 34.0609 100.604 34.2522 100.488 34.489V38H99.6458V31.0053H100.488V33.6693Z" fill="#2C4857"/>
<path d="M105.926 31.8796V33.0727H106.845V33.7239H105.926V36.7796C105.926 36.9769 105.967 37.1257 106.049 37.2258C106.13 37.323 106.27 37.3716 106.467 37.3716C106.565 37.3716 106.698 37.3534 106.868 37.3169V38C106.647 38.0607 106.431 38.0911 106.222 38.0911C105.845 38.0911 105.561 37.9772 105.37 37.7495C105.179 37.5218 105.083 37.1985 105.083 36.7796V33.7239H104.186V33.0727H105.083V31.8796H105.926Z" fill="#2C4857"/>
<path d="M110.939 33.0727L110.962 33.6192C111.323 33.1942 111.811 32.9817 112.424 32.9817C113.113 32.9817 113.582 33.2458 113.831 33.774C113.995 33.5372 114.208 33.346 114.469 33.2002C114.733 33.0545 115.044 32.9817 115.402 32.9817C116.483 32.9817 117.032 33.5539 117.051 34.6985V38H116.208V34.7486C116.208 34.3964 116.128 34.1338 115.967 33.9607C115.806 33.7847 115.536 33.6966 115.156 33.6966C114.844 33.6966 114.584 33.7907 114.378 33.979C114.171 34.1641 114.051 34.4146 114.018 34.7303V38H113.171V34.7713C113.171 34.0548 112.82 33.6966 112.119 33.6966C111.566 33.6966 111.188 33.9319 110.985 34.4025V38H110.142V33.0727H110.939Z" fill="#2C4857"/>
<path d="M118.103 35.4908C118.103 35.0081 118.197 34.574 118.385 34.1884C118.576 33.8029 118.84 33.5054 119.177 33.2959C119.517 33.0864 119.904 32.9817 120.339 32.9817C121.009 32.9817 121.551 33.2139 121.964 33.6784C122.38 34.1429 122.588 34.7607 122.588 35.5318V35.591C122.588 36.0707 122.496 36.5018 122.31 36.8843C122.128 37.2638 121.866 37.5598 121.523 37.7723C121.182 37.9848 120.791 38.0911 120.348 38.0911C119.68 38.0911 119.138 37.8588 118.722 37.3943C118.309 36.9298 118.103 36.3151 118.103 35.55V35.4908ZM118.95 35.591C118.95 36.1375 119.076 36.5762 119.328 36.9071C119.583 37.238 119.923 37.4034 120.348 37.4034C120.776 37.4034 121.116 37.2365 121.368 36.9025C121.62 36.5655 121.746 36.095 121.746 35.4908C121.746 34.9504 121.617 34.5133 121.359 34.1793C121.104 33.8423 120.764 33.6738 120.339 33.6738C119.923 33.6738 119.587 33.8393 119.332 34.1702C119.077 34.5011 118.95 34.9747 118.95 35.591Z" fill="#2C4857"/>
<path d="M125.197 36.857L126.418 33.0727H127.279L125.512 38H124.87L123.084 33.0727H123.945L125.197 36.857Z" fill="#2C4857"/>
<path d="M130.07 38.0911C129.402 38.0911 128.859 37.8725 128.44 37.4353C128.021 36.9951 127.811 36.4077 127.811 35.673V35.5182C127.811 35.0294 127.904 34.5937 128.089 34.2112C128.277 33.8256 128.538 33.5251 128.872 33.3095C129.209 33.091 129.574 32.9817 129.965 32.9817C130.606 32.9817 131.104 33.1927 131.459 33.6146C131.814 34.0366 131.992 34.6408 131.992 35.4271V35.7777H128.654C128.666 36.2635 128.807 36.6566 129.077 36.9572C129.351 37.2547 129.697 37.4034 130.116 37.4034C130.413 37.4034 130.665 37.3427 130.872 37.2213C131.078 37.0999 131.259 36.939 131.413 36.7386L131.928 37.1393C131.515 37.7738 130.896 38.0911 130.07 38.0911ZM129.965 33.6738C129.625 33.6738 129.34 33.7983 129.109 34.0473C128.879 34.2932 128.736 34.6393 128.681 35.0855H131.149V35.0218C131.125 34.5937 131.01 34.2628 130.803 34.029C130.597 33.7922 130.318 33.6738 129.965 33.6738Z" fill="#2C4857"/>
</g>
<defs>
<clipPath id="clip0_2062_909">
<rect width="135" height="40" fill="white"/>
</clipPath>
</defs>
</svg>
